HIERARCHY
ROOT HIP
{
	OFFSET 0.0 0.0 0.0
	CHANNELS 6 Xposition Yposition Zposition Zrotation Xrotation Yrotation
	JOINT WAIST
	{
		OFFSET 0.0 0.040713925 0.0
		CHANNELS 3 Zrotation Xrotation Yrotation
		JOINT CHEST
		{
			OFFSET 0.0 0.20356962 0.0
			CHANNELS 3 Zrotation Xrotation Yrotation
			JOINT UPPER_CHEST
			{
				OFFSET 0.0 0.1628557 0.0
				CHANNELS 3 Zrotation Xrotation Yrotation
				JOINT NECK
				{
					OFFSET 0.0 0.1628557 0.0
					CHANNELS 3 Zrotation Xrotation Yrotation
					JOINT HEAD
					{
						OFFSET 0.0 0.0 0.0
						CHANNELS 3 Zrotation Xrotation Yrotation
						End Site
						{
							OFFSET 0.0 0.0 0.0
						}
					}
					JOINT HEAD_TRACKER
					{
						OFFSET 0.0 -0.0 0.0
						CHANNELS 3 Zrotation Xrotation Yrotation
						End Site
						{
							OFFSET 0.0 0.0 0.0
						}
					}
					JOINT LEFT_UPPER_SHOULDER
					{
						OFFSET 0.0 -0.0 0.0
						CHANNELS 3 Zrotation Xrotation Yrotation
						JOINT LEFT_SHOULDER
						{
							OFFSET 0.0 -0.0 0.0
							CHANNELS 3 Zrotation Xrotation Yrotation
							JOINT LEFT_UPPER_ARM
							{
								OFFSET 0.0 -0.19241881 0.0
								CHANNELS 3 Zrotation Xrotation Yrotation
								JOINT LEFT_LOWER_ARM
								{
									OFFSET 0.0 -0.2646405 0.0
									CHANNELS 3 Zrotation Xrotation Yrotation
									JOINT LEFT_HAND
									{
										OFFSET 0.0 -0.2646405 0.0
										CHANNELS 3 Zrotation Xrotation Yrotation
										JOINT LEFT_HAND_TRACKER
										{
											OFFSET 0.0 -0.13462912 0.0
											CHANNELS 3 Zrotation Xrotation Yrotation
											End Site
											{
												OFFSET 0.0 0.0 0.0
											}
										}
										JOINT LEFT_THUMB_METACARPAL
										{
											OFFSET 0.0 -0.13462912 0.0
											CHANNELS 3 Zrotation Xrotation Yrotation
											JOINT LEFT_THUMB_PROXIMAL
											{
												OFFSET 0.0 -0.007826238 0.0
												CHANNELS 3 Zrotation Xrotation Yrotation
												JOINT LEFT_THUMB_DISTAL
												{
													OFFSET 0.0 -0.007826238 0.0
													CHANNELS 3 Zrotation Xrotation Yrotation
													End Site
													{
														OFFSET 0.0 0.0 0.0
													}
												}
											}
										}
										JOINT LEFT_INDEX_PROXIMAL
										{
											OFFSET 0.0 -0.13462912 0.0
											CHANNELS 3 Zrotation Xrotation Yrotation
											JOINT LEFT_INDEX_INTERMEDIATE
											{
												OFFSET 0.0 -0.00875 0.0
												CHANNELS 3 Zrotation Xrotation Yrotation
												JOINT LEFT_INDEX_DISTAL
												{
													OFFSET 0.0 -0.00875 0.0
													CHANNELS 3 Zrotation Xrotation Yrotation
													End Site
													{
														OFFSET 0.0 0.0 0.0
													}
												}
											}
										}
										JOINT LEFT_MIDDLE_PROXIMAL
										{
											OFFSET 0.0 -0.13462912 0.0
											CHANNELS 3 Zrotation Xrotation Yrotation
											JOINT LEFT_MIDDLE_INTERMEDIATE
											{
												OFFSET 0.0 -0.010500001 0.0
												CHANNELS 3 Zrotation Xrotation Yrotation
												JOINT LEFT_MIDDLE_DISTAL
												{
													OFFSET 0.0 -0.010500001 0.0
													CHANNELS 3 Zrotation Xrotation Yrotation
													End Site
													{
														OFFSET 0.0 0.0 0.0
													}
												}
											}
										}
										JOINT LEFT_RING_PROXIMAL
										{
											OFFSET 0.0 -0.13462912 0.0
											CHANNELS 3 Zrotation Xrotation Yrotation
											JOINT LEFT_RING_INTERMEDIATE
											{
												OFFSET 0.0 -0.0098 0.0
												CHANNELS 3 Zrotation Xrotation Yrotation
												JOINT LEFT_RING_DISTAL
												{
													OFFSET 0.0 -0.0098 0.0
													CHANNELS 3 Zrotation Xrotation Yrotation
													End Site
													{
														OFFSET 0.0 0.0 0.0
													}
												}
											}
										}
										JOINT LEFT_LITTLE_PROXIMAL
										{
											OFFSET 0.0 -0.13462912 0.0
											CHANNELS 3 Zrotation Xrotation Yrotation
											JOINT LEFT_LITTLE_INTERMEDIATE
											{
												OFFSET 0.0 -0.007 0.0
												CHANNELS 3 Zrotation Xrotation Yrotation
												JOINT LEFT_LITTLE_DISTAL
												{
													OFFSET 0.0 -0.007 0.0
													CHANNELS 3 Zrotation Xrotation Yrotation
													End Site
													{
														OFFSET 0.0 0.0 0.0
													}
												}
											}
										}
									}
								}
								JOINT LEFT_ELBOW_TRACKER
								{
									OFFSET 0.0 -0.2646405 0.0
									CHANNELS 3 Zrotation Xrotation Yrotation
									End Site
									{
										OFFSET 0.0 0.0 0.0
									}
								}
							}
						}
					}
					JOINT RIGHT_UPPER_SHOULDER
					{
						OFFSET 0.0 -0.0 0.0
						CHANNELS 3 Zrotation Xrotation Yrotation
						JOINT RIGHT_SHOULDER
						{
							OFFSET 0.0 -0.0 0.0
							CHANNELS 3 Zrotation Xrotation Yrotation
							JOINT RIGHT_UPPER_ARM
							{
								OFFSET 0.0 -0.19241881 0.0
								CHANNELS 3 Zrotation Xrotation Yrotation
								JOINT RIGHT_LOWER_ARM
								{
									OFFSET 0.0 -0.2646405 0.0
									CHANNELS 3 Zrotation Xrotation Yrotation
									JOINT RIGHT_HAND
									{
										OFFSET 0.0 -0.2646405 0.0
										CHANNELS 3 Zrotation Xrotation Yrotation
										JOINT RIGHT_HAND_TRACKER
										{
											OFFSET 0.0 -0.13462912 0.0
											CHANNELS 3 Zrotation Xrotation Yrotation
											End Site
											{
												OFFSET 0.0 0.0 0.0
											}
										}
										JOINT RIGHT_THUMB_METACARPAL
										{
											OFFSET 0.0 -0.13462912 0.0
											CHANNELS 3 Zrotation Xrotation Yrotation
											JOINT RIGHT_THUMB_PROXIMAL
											{
												OFFSET 0.0 -0.007826238 0.0
												CHANNELS 3 Zrotation Xrotation Yrotation
												JOINT RIGHT_THUMB_DISTAL
												{
													OFFSET 0.0 -0.007826238 0.0
													CHANNELS 3 Zrotation Xrotation Yrotation
													End Site
													{
														OFFSET 0.0 0.0 0.0
													}
												}
											}
										}
										JOINT RIGHT_INDEX_PROXIMAL
										{
											OFFSET 0.0 -0.13462912 0.0
											CHANNELS 3 Zrotation Xrotation Yrotation
											JOINT RIGHT_INDEX_INTERMEDIATE
											{
												OFFSET 0.0 -0.00875 0.0
												CHANNELS 3 Zrotation Xrotation Yrotation
												JOINT RIGHT_INDEX_DISTAL
												{
													OFFSET 0.0 -0.00875 0.0
													CHANNELS 3 Zrotation Xrotation Yrotation
													End Site
													{
														OFFSET 0.0 0.0 0.0
													}
												}
											}
										}
										JOINT RIGHT_MIDDLE_PROXIMAL
										{
											OFFSET 0.0 -0.13462912 0.0
											CHANNELS 3 Zrotation Xrotation Yrotation
											JOINT RIGHT_MIDDLE_INTERMEDIATE
											{
												OFFSET 0.0 -0.010500001 0.0
												CHANNELS 3 Zrotation Xrotation Yrotation
												JOINT RIGHT_MIDDLE_DISTAL
												{
													OFFSET 0.0 -0.010500001 0.0
													CHANNELS 3 Zrotation Xrotation Yrotation
													End Site
													{
														OFFSET 0.0 0.0 0.0
													}
												}
											}
										}
										JOINT RIGHT_RING_PROXIMAL
										{
											OFFSET 0.0 -0.13462912 0.0
											CHANNELS 3 Zrotation Xrotation Yrotation
											JOINT RIGHT_RING_INTERMEDIATE
											{
												OFFSET 0.0 -0.0098 0.0
												CHANNELS 3 Zrotation Xrotation Yrotation
												JOINT RIGHT_RING_DISTAL
												{
													OFFSET 0.0 -0.0098 0.0
													CHANNELS 3 Zrotation Xrotation Yrotation
													End Site
													{
														OFFSET 0.0 0.0 0.0
													}
												}
											}
										}
										JOINT RIGHT_LITTLE_PROXIMAL
										{
											OFFSET 0.0 -0.13462912 0.0
											CHANNELS 3 Zrotation Xrotation Yrotation
											JOINT RIGHT_LITTLE_INTERMEDIATE
											{
												OFFSET 0.0 -0.007 0.0
												CHANNELS 3 Zrotation Xrotation Yrotation
												JOINT RIGHT_LITTLE_DISTAL
												{
													OFFSET 0.0 -0.007 0.0
													CHANNELS 3 Zrotation Xrotation Yrotation
													End Site
													{
														OFFSET 0.0 0.0 0.0
													}
												}
											}
										}
									}
								}
								JOINT RIGHT_ELBOW_TRACKER
								{
									OFFSET 0.0 -0.2646405 0.0
									CHANNELS 3 Zrotation Xrotation Yrotation
									End Site
									{
										OFFSET 0.0 0.0 0.0
									}
								}
							}
						}
					}
				}
				JOINT CHEST_TRACKER
				{
					OFFSET 0.0 -0.1628557 0.0
					CHANNELS 3 Zrotation Xrotation Yrotation
					End Site
					{
						OFFSET 0.0 0.0 0.0
					}
				}
			}
		}
	}
	JOINT LEFT_HIP
	{
		OFFSET 0.0 -0.040713925 0.0
		CHANNELS 3 Zrotation Xrotation Yrotation
		JOINT LEFT_UPPER_LEG
		{
			OFFSET 0.0 -0.13 0.0
			CHANNELS 3 Zrotation Xrotation Yrotation
			JOINT LEFT_LOWER_LEG
			{
				OFFSET 0.0 -0.42749622 0.0
				CHANNELS 3 Zrotation Xrotation Yrotation
				JOINT LEFT_FOOT
				{
					OFFSET 0.0 -0.5113743 0.0
					CHANNELS 3 Zrotation Xrotation Yrotation
					JOINT LEFT_FOOT_TRACKER
					{
						OFFSET 0.0 -0.05 0.0
						CHANNELS 3 Zrotation Xrotation Yrotation
						End Site
						{
							OFFSET 0.0 0.0 0.0
						}
					}
				}
			}
			JOINT LEFT_KNEE_TRACKER
			{
				OFFSET 0.0 -0.42749622 0.0
				CHANNELS 3 Zrotation Xrotation Yrotation
				End Site
				{
					OFFSET 0.0 0.0 0.0
				}
			}
		}
	}
	JOINT RIGHT_HIP
	{
		OFFSET 0.0 -0.040713925 0.0
		CHANNELS 3 Zrotation Xrotation Yrotation
		JOINT RIGHT_UPPER_LEG
		{
			OFFSET 0.0 -0.13 0.0
			CHANNELS 3 Zrotation Xrotation Yrotation
			JOINT RIGHT_LOWER_LEG
			{
				OFFSET 0.0 -0.42749622 0.0
				CHANNELS 3 Zrotation Xrotation Yrotation
				JOINT RIGHT_FOOT
				{
					OFFSET 0.0 -0.5113743 0.0
					CHANNELS 3 Zrotation Xrotation Yrotation
					JOINT RIGHT_FOOT_TRACKER
					{
						OFFSET 0.0 -0.05 0.0
						CHANNELS 3 Zrotation Xrotation Yrotation
						End Site
						{
							OFFSET 0.0 0.0 0.0
						}
					}
				}
			}
			JOINT RIGHT_KNEE_TRACKER
			{
				OFFSET 0.0 -0.42749622 0.0
				CHANNELS 3 Zrotation Xrotation Yrotation
				End Site
				{
					OFFSET 0.0 0.0 0.0
				}
			}
		}
	}
	JOINT HIP_TRACKER
	{
		OFFSET 0.0 -0.040713925 0.0
		CHANNELS 3 Zrotation Xrotation Yrotation
		End Site
		{
			OFFSET 0.0 0.0 0.0
		}
	}
}
MOTION
Frames: 4                
Frame Time: 0.01
-0.0125594055 -0.48626208 0.1276403 0.28572688 33.35486 -0.39603528 -1.0008343 -24.914005 -0.42800465 -1.1185005 -37.368008 -0.8397157 -2.1344346E-7 -1.7079643E-6 -3.181332E-15 2.1343922E-7 1.7079307E-6 -3.1812067E-15 -1.067217E-7 -1.7075472E-6 -1.5902773E-15 -1.067217E-7 -1.7075472E-6 -1.5902773E-15 -1.067217E-7 -1.7075472E-6 -1.5902773E-15 -65.43282 -9.989437E-7 -6.417147E-7 16.392815 35.47095 9.315753 -60.211617 71.040375 38.90268 64.5267 70.534134 -77.68358 -6.035696E-6 -74.93152 -8.928293E-6 0.012298764 -48.362747 0.013402733 8.537735E-7 -3.415094E-6 2.544443E-14 8.537735E-7 -3.415094E-6 2.544443E-14 0.03537202 -74.927795 0.03426598 5.0888872E-14 1.7075472E-6 -3.4150944E-6 5.0888872E-14 1.7075472E-6 -3.4150944E-6 0.03537202 -74.927795 0.03426598 5.0888872E-14 1.7075472E-6 -3.4150944E-6 5.0888872E-14 1.7075472E-6 -3.4150944E-6 0.03537202 -74.927795 0.03426598 5.0888872E-14 1.7075472E-6 -3.4150944E-6 5.0888872E-14 1.7075472E-6 -3.4150944E-6 0.03536273 -74.927795 0.03425456 -5.088888E-14 1.7075474E-6 3.4150949E-6 -5.088888E-14 1.7075474E-6 3.4150949E-6 -3.4151187E-6 1.7075594E-6 -4.268898E-7 -1.067217E-7 -1.7075472E-6 -1.5902773E-15 65.432816 1.8881868E-6 8.1659937E-7 -37.566334 12.240017 -15.3957405 59.072403 47.124638 -31.36406 -62.353497 82.13068 84.23769 -5.2132937E-6 -74.93152 -3.995354E-6 0.0029811717 -48.367123 -0.0012144167 -0.0 0.0 0.0 -0.0 0.0 0.0 8.687036E-4 -74.93217 -0.003124918 -0.0 8.537736E-7 0.0 -0.0 8.537736E-7 0.0 8.687036E-4 -74.93217 -0.003124918 -0.0 8.537736E-7 0.0 -0.0 8.537736E-7 0.0 8.687036E-4 -74.93217 -0.003124918 -0.0 8.537736E-7 0.0 -0.0 8.537736E-7 0.0 8.819082E-4 -74.93217 -0.0031104963 -3.4150949E-6 -1.7075474E-6 -5.0888886E-14 -3.4150949E-6 -1.7075474E-6 -5.0888886E-14 -3.4150105E-6 -1.1739099E-6 -4.2687634E-7 2.1343922E-7 1.7079307E-6 -3.1812067E-15 -90.0 -3.0562771E-6 -6.414409E-7 74.84625 62.776512 6.5122247 177.84761 -50.285473 166.26825 -177.71861 57.815636 178.3152 178.10156 -89.99999 178.10156 7.1433196 0.4639822 7.4231954 90.0 3.0657102E-6 1.7639624E-6 -73.18263 60.9883 -5.9727836 -174.17145 -49.485943 -160.85332 174.01349 55.940815 -172.25827 1.1697055E-6 -90.0 0.0 -7.454572 0.68396074 -10.469682 6.670106E-8 1.04220396E-10 -2.6680425E-8
-0.012572241 -0.48644248 0.12708247 0.29142115 33.39038 -0.39359674 -1.0070826 -24.897888 -0.4300853 -1.1252482 -37.343815 -0.8440302 -1.067217E-7 -8.337633E-10 5.336085E-8 1.0671979E-7 4.1687415E-10 -5.3359894E-8 -1.067217E-7 -2.4848082E-17 2.6680425E-8 -1.067217E-7 -2.4848082E-17 2.6680425E-8 -1.067217E-7 -2.4848082E-17 2.6680425E-8 -65.43282 -1.6836103E-7 -1.0815399E-7 16.395115 35.480377 9.265705 -60.039196 70.96772 38.69285 64.50726 70.60275 -77.684296 -2.0853071E-5 -74.93151 -1.598133E-5 0.011283163 -48.363052 0.012302844 -0.0 0.0 0.0 -0.0 0.0 0.0 0.032446995 -74.92811 0.031439457 -1.7075474E-6 5.088888E-14 -3.4150949E-6 -1.7075474E-6 5.088888E-14 -3.4150949E-6 0.032446995 -74.92811 0.031439457 -1.7075474E-6 5.088888E-14 -3.4150949E-6 -1.7075474E-6 5.088888E-14 -3.4150949E-6 0.032446995 -74.92811 0.031439457 -1.7075474E-6 5.088888E-14 -3.4150949E-6 -1.7075474E-6 5.088888E-14 -3.4150949E-6 0.032453682 -74.92811 0.031448882 -3.4150944E-6 -1.7075471E-6 -3.4150944E-6 -3.4150944E-6 -1.7075471E-6 -3.4150944E-6 6.8302115E-6 2.5613294E-6 1.7075527E-6 -1.067217E-7 -2.4848082E-17 2.6680425E-8 65.43282 2.527956E-6 4.0561287E-7 -37.476658 12.286055 -15.369168 58.91937 47.01301 -31.184404 -62.4113 82.15009 84.27056 8.3322675E-6 -74.93152 1.9293771E-5 0.0035700814 -48.366684 -0.0012869044 5.0888872E-14 1.7075472E-6 -3.4150944E-6 5.0888872E-14 1.7075472E-6 -3.4150944E-6 0.0013584718 -74.93173 -0.003283112 3.415094E-6 1.0177772E-13 3.415094E-6 3.415094E-6 1.0177772E-13 3.415094E-6 0.0013584718 -74.93173 -0.003283112 3.415094E-6 1.0177772E-13 3.415094E-6 3.415094E-6 1.0177772E-13 3.415094E-6 0.0013584718 -74.93173 -0.003283112 3.415094E-6 1.0177772E-13 3.415094E-6 3.415094E-6 1.0177772E-13 3.415094E-6 0.0013532583 -74.931725 -0.0032871075 5.0888872E-14 -1.7075472E-6 3.4150944E-6 5.0888872E-14 -1.7075472E-6 3.4150944E-6 3.4150037E-6 -7.4703206E-7 -6.403131E-7 1.0671979E-7 4.1687415E-10 -5.3359894E-8 -90.0 3.301534E-7 -2.0846833E-6 74.87833 62.742203 6.4890466 177.86906 -50.276 166.29404 -177.71288 57.80304 178.30931 1.5092503E-7 -90.0 0.0 7.143343 0.4632107 7.4108973 90.0 -3.301534E-7 2.7449898E-6 -73.19963 60.94546 -5.9510455 -174.1598 -49.49239 -160.83928 174.01349 55.940804 -172.25827 7.546487E-7 -90.0 0.0 -7.455135 0.6843938 -10.47579 2.6680432E-8 6.8301633E-6 -5.6695903E-8
-0.0125321485 -0.48668212 0.12634856 0.30305502 33.435493 -0.3900406 -1.0142859 -24.875837 -0.42954028 -1.1335741 -37.310684 -0.84640133 -7.9494476E-16 1.7071307E-6 5.3360864E-8 -0.0 4.1687487E-10 0.0 -1.06721714E-7 -2.4848089E-17 2.6680429E-8 -1.06721714E-7 -2.4848089E-17 2.6680429E-8 -1.06721714E-7 -2.4848089E-17 2.6680429E-8 -65.432816 5.836506E-7 3.7493317E-7 16.405117 35.478737 9.190537 -59.86228 70.89239 38.47717 64.486885 70.67375 -77.68474 3.062792E-5 -74.93151 2.3472563E-5 0.013991692 -48.36224 0.015244698 3.4150949E-6 0.0 0.0 3.4150949E-6 0.0 0.0 0.040199906 -74.92729 0.038942076 0.0 -1.7075472E-6 0.0 0.0 -1.7075472E-6 0.0 0.040199906 -74.92729 0.038942076 0.0 -1.7075472E-6 0.0 0.0 -1.7075472E-6 0.0 0.040199906 -74.92729 0.038942076 0.0 -1.7075472E-6 0.0 0.0 -1.7075472E-6 0.0 0.040216997 -74.927284 0.03895948 1.7075472E-6 -5.0888872E-14 -3.4150944E-6 1.7075472E-6 -5.0888872E-14 -3.4150944E-6 3.4150933E-6 -5.9764134E-6 1.7075467E-6 -1.06721714E-7 -2.4848089E-17 2.6680429E-8 65.43282 -1.495339E-6 -1.0689554E-6 -37.391537 12.312672 -15.334577 58.74893 46.88539 -30.986391 -62.546513 82.177864 84.38283 -7.990758E-6 -74.93152 -1.04266555E-5 0.0044161566 -48.366734 -0.0015995471 0.0 0.0 -3.4150949E-6 0.0 0.0 -3.4150949E-6 0.0016532302 -74.93178 -0.0041027884 3.4150944E-6 -8.537736E-7 2.5444436E-14 3.4150944E-6 -8.537736E-7 2.5444436E-14 0.0016532302 -74.93178 -0.0041027884 3.4150944E-6 -8.537736E-7 2.5444436E-14 3.4150944E-6 -8.537736E-7 2.5444436E-14 0.0016532302 -74.93178 -0.0041027884 3.4150944E-6 -8.537736E-7 2.5444436E-14 3.4150944E-6 -8.537736E-7 2.5444436E-14 0.0016664352 -74.93178 -0.004088366 -0.0 0.0 3.4150949E-6 -0.0 0.0 3.4150949E-6 1.7074981E-6 8.5374904E-7 -8.5374904E-7 -0.0 4.1687487E-10 0.0 -89.999985 -2.4525713E-7 -2.6600935E-6 74.92279 62.69431 6.4484386 177.89037 -50.271786 166.3211 -177.70695 57.790043 178.30322 -7.546252E-8 -90.0 0.0 7.143063 0.4623376 7.3970823 90.0 -2.1507135E-6 2.1507137E-6 -73.213554 60.88737 -5.9272346 -174.13936 -49.502293 -160.80962 174.01349 55.940815 -172.25827 1.1697055E-6 -90.0 0.0 -7.459104 0.68567455 -10.489509 -4.0020637E-8 -3.4151465E-6 -3.3350542E-9
-0.012486506 -0.48685762 0.12581052 0.3109088 33.468395 -0.3869711 -1.0181961 -24.859602 -0.4277518 -1.1383104 -37.286274 -0.8462997 3.2016513E-7 4.1688153E-10 -5.3360857E-8 -3.2016084E-7 4.1687606E-10 2.6680071E-8 2.1344343E-7 0.0 0.0 2.1344343E-7 0.0 0.0 2.1344343E-7 0.0 0.0 -65.43283 8.7547335E-7 5.6239827E-7 16.376068 35.52465 9.163057 -59.5746 70.8035 38.151234 64.43851 70.75833 -77.65921 -2.8502129E-5 -74.93152 -1.754075E-5 0.016998129 -48.359806 0.01685991 -8.537735E-7 0.0 0.0 -8.537735E-7 0.0 0.0 0.04599372 -74.92485 0.043070503 -3.4150949E-6 1.7075474E-6 3.4150949E-6 -3.4150949E-6 1.7075474E-6 3.4150949E-6 0.04599372 -74.92485 0.043070503 -3.4150949E-6 1.7075474E-6 3.4150949E-6 -3.4150949E-6 1.7075474E-6 3.4150949E-6 0.04599372 -74.92485 0.043070503 -3.4150949E-6 1.7075474E-6 3.4150949E-6 -3.4150949E-6 1.7075474E-6 3.4150949E-6 0.04600041 -74.92485 0.043079935 1.7075472E-6 0.0 0.0 1.7075472E-6 0.0 0.0 6.8301947E-6 1.2806616E-6 1.7075487E-6 2.1344343E-7 0.0 0.0 65.43282 -1.7983832E-6 -8.742761E-7 -37.345215 12.314547 -15.309481 58.647343 46.80846 -30.868475 -62.637215 82.195465 84.46023 -1.0768208E-5 -74.93151 -1.6857963E-5 0.0027447015 -48.366634 -9.94939E-4 2.0355549E-13 -3.4150944E-6 6.830189E-6 2.0355549E-13 -3.4150944E-6 6.830189E-6 0.001046031 -74.93168 -0.0025286528 -0.0 0.0 0.0 -0.0 0.0 0.0 0.001046031 -74.93168 -0.0025286528 -0.0 0.0 0.0 -0.0 0.0 0.0 0.001046031 -74.93168 -0.0025286528 -0.0 0.0 0.0 -0.0 0.0 0.0 0.0010408186 -74.93168 -0.002532647 0.0 -8.537736E-7 0.0 0.0 -8.537736E-7 0.0 1.7074951E-6 8.5374757E-7 6.4031065E-7 -3.2016084E-7 4.1687606E-10 2.6680071E-8 -90.0 -4.6221476E-7 -4.622148E-7 74.9567 62.656914 6.415859 177.90576 -50.264763 166.33899 -177.70221 57.773945 178.29842 179.15599 -89.999985 179.15599 7.1434617 0.46182936 7.388621 90.0 4.6221476E-7 -4.6221476E-7 -73.223145 60.84666 -5.9124866 -174.12729 -49.508087 -160.79213 174.01349 55.94081 -172.25827 7.1691625E-7 -90.0 0.0 -7.461446 0.68641067 -10.497598 6.670106E-8 -3.414834E-6 6.003096E-8
